<!--?xml version="1.0" encoding="utf-8"?-->
<!-- Generator: Adobe Illustrator 18.1.1, SVG Export Plug-In . SVG Version: 6.00 Build 0)  -->

<svg version="1.1" id="_x31_0" xmlns="http://www.w3.org/2000/svg" xmlns:xlink="http://www.w3.org/1999/xlink" x="0px" y="0px" viewBox="0 0 512 512" style="width: 48px; height: 48px; opacity: 1;" xml:space="preserve">
<style type="text/css">
	.st0{fill:#374149;}
</style>
<g>
	<path class="st0" d="M510.474,216.709c-0.711-6.828-6.867-11.875-13.855-11c-17.352,2.106-33.993,3.175-49.516,3.175
		c-31.953,0-56.679-4.445-76.637-10.562c-3-0.938-5.969-1.926-8.906-2.988l5.52-6.629c3.934-4.722,5.442-10.879,4.145-16.887
		c-1.305-6.011-5.227-10.992-10.762-13.664l-36.003-17.39c-6.199-2.996-13.637-2.531-19.414,1.215l-35.422,22.949
		c-0.004,0-0.012,0-0.012,0c-3.141,0.832-6.45,2.043-9.859,3.414c-2.133,0.785-4.402,1.641-7.02,2.644l-0.078-0.062l-1.473-1.109
		c-2.461-1.829-5.359-2.782-8.379-2.782c-4.644,0-9.09,2.266-11.949,6.074c-2.184,2.942-3.219,6.554-2.938,10.086
		c0,0.125,0.012,0.258,0.019,0.39c-3.625,1.825-7.438,3.715-11.461,5.692l-3.687-2.746c-2.465-1.824-5.363-2.778-8.379-2.778
		c-4.648,0-9.094,2.262-11.953,6.074c-2.344,3.137-3.375,6.95-2.898,10.801l0.121,0.676c0.008,0.066,0.039,0.129,0.051,0.195
		c-3.633,1.566-7.399,3.133-11.336,4.73l-4.004-2.98c-2.461-1.829-5.359-2.782-8.379-2.782c-4.645,0-9.094,2.266-11.953,6.078
		c-2.106,2.816-3.098,6.152-2.938,9.566c0.004,0.074,0.027,0.144,0.031,0.218c-4.446,1.519-9.074,3.047-13.863,4.598l-1.297-0.961
		c-2.422-1.828-5.321-2.782-8.379-2.782c-4.645,0-9.094,2.262-11.953,6.074c-0.493,0.691-0.727,1.402-1.086,2.098
		c-0.039,0.074-0.082,0.149-0.117,0.226c-0.313,0.626-0.766,1.246-0.981,1.887c-0.05,0.148-0.054,0.316-0.102,0.473
		c-18.172,5.035-38.57,9.839-61.484,14.258c-13.821,2.66-25.414,6.195-34.387,10.562c-10.683,5.164-16.835,16.121-15.644,27.953
		c0.023,0.223,0.07,0.434,0.102,0.657l-0.035-0.106c-1.114,2.543-4.422,45.512,1.535,61.035
		c7.187,18.703,55.906,30.894,163.277,30.894h314.133c6.035,0,11.91-2.504,16.082-6.871c4.168-4.328,6.351-9.926,6.113-15.484
		v-32.215l0.942-3.762c0.516-2.141,1.031-4.285,1.508-6.43C513.532,272.142,512.7,238.786,510.474,216.709z M14.646,325.294
		c27.649,17.426,94.687,19.016,95.453,19.016c3.29,0,5.958-2.668,5.958-5.958c0-3.293-2.668-5.957-5.958-5.957
		c-27.722,0-86.285-7.836-94.706-22.203c-0.278-0.469-0.618-0.867-0.989-1.226c0.161-1.867,0.395-3.57,0.622-5.282
		c0.117-0.637,0.144-1.328,0.293-1.953c2.199,1.297,4.602,2.382,7.226,3.047c28.629,7.347,74.809,16.125,132.266,16.125h332.371
		v7.305l0.039,22.91c0.038,2.062-1.031,3.493-1.668,4.168c-1.23,1.313-2.938,2.027-4.684,2.027H166.735
		c-110.031,0-144.949-15.777-149.203-22.934C16.067,331.915,15.169,328.759,14.646,325.294z M75.751,253.517
		c2.382-0.515,4.726-1.031,7.031-1.59h0.039c0.953-0.195,1.863-0.394,2.816-0.633c1.551-0.32,3.098-0.676,4.61-1.031
		c9.715-2.305,18.883-4.648,27.558-7.062c0.195,0.16,0.348,0.355,0.555,0.508l17.23,12.789c2.465,1.824,5.363,2.778,8.378,2.778
		c4.649,0,9.094-2.262,11.954-6.074c2.305-3.176,3.336-6.988,2.898-10.84c-0.492-3.683-2.363-6.942-5.23-9.234
		c-0.211-0.199-0.387-0.41-0.61-0.598c2.598-0.89,5.145-1.781,7.641-2.645l13.367,9.895c2.422,1.828,5.32,2.781,8.378,2.781
		c4.645,0,9.094-2.266,11.954-6.078c4.086-5.461,3.855-12.824-0.203-17.878c-0.317-0.422-0.622-0.852-0.989-1.246
		c2.11-0.898,4.13-1.777,6.126-2.641l1.426-0.316l0.114,0.086l11.594,8.574c2.422,1.828,5.32,2.782,8.378,2.782
		c4.645,0,9.133-2.266,11.91-6.074c2.383-3.176,3.375-7.031,2.898-10.801c-0.39-3.309-1.942-6.238-4.222-8.336
		c-0.211-0.222-0.402-0.469-0.629-0.676c2.367-1.179,4.633-2.316,6.839-3.418l13.184,9.809c2.461,1.824,5.359,2.777,8.418,2.777
		c4.645,0,9.133-2.262,11.91-6.074c2.383-3.176,3.375-6.989,2.898-10.801c-0.477-3.93-2.461-7.344-5.558-9.61l-0.578-0.438
		c4.434-1.664,8.406-2.715,11.977-2.938c0.554-0.078,1.11-0.078,1.668-0.078c9.172,0,19.574,5.398,32.797,12.27
		c2.977,1.547,6.156,3.215,9.57,4.922c3.453,1.706,7.066,3.496,11,5.324h0.039c8.617,3.93,18.382,7.898,29.66,11.394
		c21.442,6.672,48.246,11.676,82.554,11.676c15.09,0,31.211-0.954,47.887-2.859c1.828,20.843,2.144,50.785-4.966,83.105H154.81
		c-25.453,0-48.602-1.785-68.89-4.406c-1.551-0.161-3.058-0.395-4.566-0.594c-0.598-0.042-1.153-0.121-1.75-0.238
		c-2.144-0.282-4.246-0.598-6.312-0.914c-18.66-2.859-34.426-6.313-46.817-9.492c-7.426-1.906-8.656-8.336-8.812-10.242
		c-0.438-4.05,1.148-9.371,6.75-12.074c7.742-3.77,17.985-6.867,30.496-9.289C62.091,256.377,69.04,254.986,75.751,253.517z
		 M159.337,213.45c0.238-0.754,0.637-1.468,1.114-2.14c1.309-1.828,3.414-2.902,5.558-2.902c1.352,0,2.582,0.438,3.653,1.191h0.038
		l15.012,11.199l2.183,1.629c2.821,2.102,3.298,6.274,1.032,9.328c-1.055,1.398-2.606,2.282-4.227,2.618
		c-0.09,0.019-0.175,0.05-0.266,0.066c-1.66,0.277-3.374-0.02-4.718-1.012l-9.094-6.793l-8.141-6.035
		C159.298,218.97,158.505,216.072,159.337,213.45z M226.326,215.041c-1.055,1.398-2.606,2.281-4.231,2.617
		c-0.09,0.02-0.175,0.047-0.262,0.062c-1.66,0.278-3.374-0.019-4.718-1.011l-8.379-6.234l-8.855-6.594
		c-1.351-0.993-2.222-2.5-2.422-4.207c-0.078-0.516-0.078-1.031,0-1.547c0.117-1.274,0.594-2.504,1.39-3.535
		c1.309-1.828,3.414-2.898,5.558-2.898c1.309,0,2.582,0.438,3.653,1.191l0.316,0.238l14.414,10.719l2.504,1.867
		c1.347,0.992,2.183,2.5,2.422,4.25C227.915,211.705,227.439,213.533,226.326,215.041z M236.372,179.302
		c0.238-0.516,0.516-0.992,0.832-1.43c1.352-1.824,3.457-2.898,5.598-2.898c0.598,0,1.153,0.082,1.711,0.277
		c0.715,0.161,1.348,0.477,1.946,0.914l12.863,9.57l4.371,3.258c1.347,0.992,2.183,2.5,2.422,4.246
		c0.195,1.75-0.282,3.574-1.39,5.082c-1.055,1.402-2.61,2.282-4.23,2.622c-0.09,0.015-0.176,0.042-0.262,0.058
		c-1.66,0.281-3.374-0.016-4.718-1.012l-10.047-7.465l-7.187-5.359c-1.351-0.992-2.226-2.504-2.422-4.207
		C235.696,181.724,235.857,180.454,236.372,179.302z M122.052,228.025c1.351-1.828,3.414-2.898,5.558-2.898
		c1.352,0,2.582,0.438,3.653,1.191l12.39,9.25l4.843,3.574c1.352,0.992,2.223,2.504,2.422,4.25c0.238,1.786-0.278,3.574-1.39,5.082
		c-1.032,1.398-2.586,2.277-4.211,2.617c-0.09,0.02-0.176,0.047-0.266,0.062c-1.664,0.278-3.39-0.019-4.734-1.011l-12.906-9.61
		l-4.328-3.215c-1.348-0.992-2.222-2.503-2.422-4.21C120.423,231.322,120.939,229.494,122.052,228.025z" style="fill: rgb(0, 0, 0);"></path>
	<path class="st0" d="M255.427,286.705c33.238,23.023,149.882-25.938,185.87-41.965c6.551-2.867,10.469-4.653,10.699-4.699
		c-0.042,0.007-0.281,0.054-0.617,0.117c0.363-0.168,0.59-0.274,0.59-0.274s-112.043,21.57-158.878,27.395
		c-12.434,1.542-21.137-2.364-26.692-9.348c-0.598-0.75-1.152-1.543-1.679-2.367c-0.817-1.278-1.559-2.614-2.203-4.039
		c-0.489-1.082-0.93-2.203-1.321-3.371c-0.43-1.277-0.812-2.586-1.125-3.938c-0.402-1.773-0.734-3.598-0.938-5.515
		c-0.086-0.722-0.168-1.446-0.222-2.176c-0.184-2.855-0.207-5.812,0.054-8.918c-0.007,0.008-0.082,0.09-0.125,0.141
		c0.004-0.082,0-0.165,0.008-0.25C258.849,227.498,224.337,265.17,255.427,286.705z" style="fill: rgb(0, 0, 0);"></path>
</g>
</svg>
